<?xml version="1.0" standalone="no"?>
<!DOCTYPE svg PUBLIC "-//W3C//DTD SVG 20010904//EN"
 "http://www.w3.org/TR/2001/REC-SVG-20010904/DTD/svg10.dtd">
<svg version="1.0" xmlns="http://www.w3.org/2000/svg"
 width="1024.000000pt" height="1024.000000pt" viewBox="0 0 1024.000000 1024.000000"
 preserveAspectRatio="xMidYMid meet">

<g transform="translate(0.000000,1024.000000) scale(0.100000,-0.100000)"
fill="#000000" stroke="none">
<path d="M0 5120 l0 -5120 5120 0 5120 0 0 5120 0 5120 -5120 0 -5120 0 0
-5120z m3863 1928 c51 -34 93 -62 94 -63 2 -1 -23 -28 -55 -61 -203 -208 -165
-527 78 -651 50 -26 64 -28 165 -28 131 0 174 16 256 92 58 53 96 124 105 196
4 26 9 47 11 47 13 0 102 -70 148 -116 55 -57 105 -141 105 -180 0 -12 -10
-53 -21 -90 -45 -144 -27 -205 102 -350 102 -114 170 -213 230 -333 45 -90 48
-94 57 -70 53 138 129 259 253 401 127 145 139 188 97 349 -21 84 -21 87 -4
133 25 65 97 157 164 211 31 24 60 45 63 45 3 0 9 -22 12 -49 7 -63 47 -141
96 -190 119 -119 335 -136 477 -38 108 74 159 178 157 317 -2 135 -50 243
-145 324 -48 42 -56 31 80 116 l82 52 57 -33 c135 -81 238 -222 279 -384 23
-93 23 -267 0 -355 -25 -96 -90 -219 -155 -297 -114 -136 -262 -223 -531 -313
-180 -61 -258 -94 -349 -152 -228 -142 -435 -354 -597 -610 -27 -43 -51 -78
-54 -78 -3 0 -25 35 -50 78 -108 187 -281 378 -480 529 -147 111 -230 154
-428 219 -229 75 -318 113 -418 179 -144 96 -245 227 -300 390 -22 66 -28 103
-32 207 -4 115 -2 135 22 219 46 159 118 259 253 349 41 27 77 50 80 50 2 0
46 -28 96 -62z m316 -255 c30 -32 33 -40 28 -77 -4 -29 -15 -49 -38 -70 -28
-25 -38 -28 -78 -23 -34 4 -52 12 -73 36 -56 63 -26 147 62 174 29 9 65 -5 99
-40z m2024 17 c14 -11 31 -36 37 -55 21 -64 -34 -135 -105 -135 -67 0 -124 68
-110 131 16 70 120 104 178 59z m-2814 -1469 c39 -28 70 -91 71 -140 0 -50
-36 -118 -78 -146 l-36 -24 -3 -228 -4 -228 379 -381 378 -380 29 13 c75 31
178 4 232 -62 l31 -37 213 17 c118 8 358 27 534 40 491 38 840 55 1187 60
l317 4 40 40 c86 86 231 80 308 -13 69 -85 68 -187 -3 -266 -109 -121 -299
-82 -354 73 l-10 27 -214 0 c-288 0 -1337 -57 -1831 -100 -60 -6 -122 -10
-137 -10 -23 0 -31 -7 -43 -37 -21 -49 -61 -92 -104 -110 l-33 -14 7 -520 8
-519 -49 23 c-27 12 -55 26 -61 30 -10 6 -13 117 -13 497 l0 490 -33 13 c-41
18 -91 75 -107 122 -12 36 -9 105 6 153 6 20 -42 71 -385 413 l-391 390 0 248
0 248 -37 24 c-58 38 -83 82 -83 149 0 66 24 110 80 148 47 32 139 28 189 -7z
m463 -157 c44 -22 72 -71 76 -133 4 -67 -19 -110 -73 -142 l-35 -21 0 -132 0
-131 133 -133 132 -132 38 17 37 17 0 173 c0 145 -2 173 -15 173 -22 0 -86 61
-101 97 -22 52 -18 120 11 170 33 55 86 83 158 83 167 0 230 -214 96 -322
l-39 -31 0 -173 0 -173 43 -19 c44 -20 81 -51 109 -90 l16 -23 543 55 c299 31
686 69 859 86 173 16 331 32 350 35 42 6 365 35 398 35 16 0 22 6 22 23 0 34
55 122 95 153 110 84 274 69 366 -33 154 -170 8 -438 -227 -420 -75 6 -155 46
-192 97 -15 19 -27 36 -27 37 -2 4 -944 -87 -1857 -179 -321 -32 -327 -33
-333 -56 -10 -39 -83 -110 -133 -129 -177 -68 -362 75 -323 250 9 39 8 44 -17
72 -16 17 -79 85 -140 152 -83 90 -112 128 -111 145 1 13 1 86 1 163 l-2 140
-37 20 c-46 25 -73 76 -73 138 0 82 38 132 117 152 51 14 92 10 135 -11z
m-602 -949 c55 -16 110 -91 110 -153 0 -21 22 -52 91 -129 l90 -102 42 15
c133 48 268 -74 228 -206 -21 -72 -118 -130 -194 -116 -84 16 -153 103 -143
181 4 36 1 44 -42 90 -26 27 -64 70 -84 94 l-38 44 -42 -19 c-113 -51 -238 18
-238 133 0 84 51 154 125 172 40 9 49 8 95 -4z"/>
<path d="M3890 4415 c30 -30 57 -55 59 -55 3 0 -19 25 -49 55 -30 30 -57 55
-59 55 -3 0 19 -25 49 -55z"/>
</g>
</svg>
